<svg width="40" height="38" viewBox="0 0 40 38" fill="none" xmlns="http://www.w3.org/2000/svg">
<rect width="39.5789" height="38" rx="1" fill="#37586A"/>
<path d="M19.7896 18.4737V12.6842H25.579V18.4737H19.7896Z" fill="white"/>
<path d="M12.9478 14.5263V10.8421H16.632V14.5263H12.9478Z" fill="white"/>
<path d="M6.89502 11.3684V9H10.0529V11.3684H6.89502Z" fill="white"/>
<path d="M4 6.89474V4H5.57895V6.89474H4Z" fill="white"/>
<path d="M10.2159 6.36844V6.46844H10.3159H15.5791H15.6791V6.36844V4.52634V4.42634H15.5791H10.3159H10.2159V4.52634V6.36844Z" fill="#FFFD82" stroke="#FFFD82" stroke-width="0.2"/>
<path d="M19.9527 9.26317V9.36317H20.0527H22.4212H22.5212V9.26317V6.89474V6.79474H22.4212H20.0527H19.9527V6.89474V9.26317Z" fill="#FFFD82" stroke="#FFFD82" stroke-width="0.2"/>
<path d="M11.5318 22.6842V22.7842H11.6318H15.8424H15.9424V22.6842V18.4737V18.3737H15.8424H11.6318H11.5318V18.4737V22.6842Z" fill="#FFFD82" stroke="#FFFD82" stroke-width="0.2"/>
<path d="M5.74229 17.1579V17.2579H5.84229H8.21071H8.31071V17.1579V14.7895V14.6895H8.21071H5.84229H5.74229V14.7895V17.1579Z" fill="#FFFD82" stroke="#FFFD82" stroke-width="0.2"/>
<path d="M10.3161 24.5263H7.1582V34H35.5793V5.57895H26.1056V8.73684H32.6845V30.8421H10.3161V24.5263Z" fill="white" stroke="white" stroke-width="0.263158"/>
</svg>
